<?xml version="1.0" encoding="utf-8"?>
<!-- Generator: Adobe Illustrator 18.0.0, SVG Export Plug-In . SVG Version: 6.00 Build 0)  -->
<!DOCTYPE svg PUBLIC "-//W3C//DTD SVG 1.1//EN" "http://www.w3.org/Graphics/SVG/1.1/DTD/svg11.dtd">
<svg version="1.1" xmlns="http://www.w3.org/2000/svg" xmlns:xlink="http://www.w3.org/1999/xlink" x="0px" y="0px" width="30px" height="30px"
	 viewBox="0 0 30 30" enable-background="new 0 0 30 30" xml:space="preserve">
<g>
	<path fill="#FFFFFF" d="M17.5,30h-5c-0.2763672,0-0.5-0.2274227-0.5-0.5084743V0.5084746C12,0.2274232,12.2236328,0,12.5,0h5
		C17.7763672,0,18,0.2274232,18,0.5084746v28.9830513C18,29.7725773,17.7763672,30,17.5,30z"/>
</g>
<g>
	<path fill="#FFFFFF" d="M0.0000002,17.5l0-5c0-0.2763672,0.2274232-0.5,0.5084746-0.5h28.9830513
		C29.7725773,12,30,12.2236328,30,12.5v5c0,0.2763672-0.2274227,0.5-0.5084743,0.5H0.5084748
		C0.2274234,18,0.0000002,17.7763672,0.0000002,17.5z"/>
</g>
</svg>
